<?xml version="1.0" encoding="utf-8"?>
<svg viewBox="0 0 500 500" xmlns="http://www.w3.org/2000/svg">
  <path d="M 206.802 31.978 C 205.989 32.276 204.471 32.629 203.414 32.791 C 202.384 32.954 200.921 33.333 200.216 33.604 C 199.485 33.902 197.561 34.309 195.962 34.526 C 194.336 34.715 192.764 35.041 192.466 35.176 C 192.168 35.339 190.542 35.718 188.808 35.989 C 187.101 36.287 185.393 36.721 185.041 36.938 C 184.689 37.181 183.686 37.507 182.792 37.669 C 181.925 37.832 180.895 38.184 180.516 38.455 C 180.136 38.699 179.215 39.133 178.429 39.376 C 177.67 39.62 176.884 40 176.722 40.216 C 176.559 40.406 175.854 40.704 175.15 40.867 C 174.445 41.002 172.792 41.707 171.437 42.384 C 170.109 43.089 168.348 43.875 167.562 44.146 C 166.776 44.444 165.801 44.905 165.421 45.23 C 165.042 45.528 164.446 45.772 164.066 45.772 C 163.362 45.772 162.495 46.151 160.137 47.479 C 159.297 47.967 158.078 48.644 157.427 48.997 C 156.777 49.349 156.099 49.864 155.91 50.135 C 155.72 50.433 155.395 50.65 155.178 50.65 C 154.988 50.65 154.473 50.948 154.04 51.3 C 153.633 51.652 152.793 52.14 152.197 52.384 C 151.601 52.628 150.869 53.061 150.571 53.332 C 149.623 54.172 147.102 55.446 145.964 55.663 C 145.395 55.771 144.501 56.205 143.986 56.638 C 143.498 57.072 142.983 57.424 142.848 57.424 C 142.712 57.424 141.33 58.481 139.813 59.809 C 138.268 61.11 136.724 62.383 136.344 62.627 C 135.098 63.413 128.242 69.375 125.694 71.868 C 124.827 72.708 123.743 73.602 123.31 73.819 C 122.876 74.063 122.524 74.334 122.524 74.443 C 122.524 74.551 122.198 74.849 121.792 75.093 C 120.762 75.716 118.676 77.722 118.106 78.616 C 117.592 79.456 117.104 79.564 116.291 79.049 C 115.803 78.751 115.668 78.778 115.126 79.402 C 114.8 79.808 114.313 80.188 114.042 80.296 C 113.798 80.377 113.473 80.675 113.391 80.919 C 113.147 81.542 107.755 86.962 107.348 86.962 C 107.186 86.962 106.942 87.287 106.752 87.694 C 106.047 89.455 104.53 92.545 104.178 92.978 C 103.961 93.222 103.609 94.116 103.392 94.956 C 103.148 95.824 102.796 96.799 102.579 97.124 C 102.362 97.45 102.091 98.588 101.955 99.672 C 101.603 102.517 100.899 103.086 99.435 101.677 C 98.812 101.081 98.433 100.945 97.457 101 C 96.102 101.054 94.341 101.677 94.341 102.111 C 94.341 102.273 93.853 102.653 93.257 102.951 C 92.146 103.52 91.875 104.17 92.498 104.793 C 92.688 104.983 93.013 105.119 93.257 105.119 C 94.341 105.146 94.449 105.579 93.582 106.69 C 93.094 107.287 92.39 107.856 91.983 107.964 C 91.577 108.045 90.628 108.75 89.869 109.509 C 89.138 110.24 88.081 111.08 87.539 111.351 C 87.024 111.622 86.428 112.029 86.238 112.273 C 86.048 112.49 85.533 112.761 85.1 112.842 C 84.233 113.032 83.935 113.465 83.691 114.793 C 83.447 116.012 82.038 118.262 80.168 120.294 C 75.426 125.524 74.802 125.985 74.016 125.036 C 73.827 124.82 73.474 124.63 73.231 124.63 C 72.797 124.63 71.252 126.012 69.87 127.665 C 69.464 128.153 68.813 128.912 68.461 129.345 C 68.082 129.779 67.865 130.212 67.946 130.348 C 68.028 130.483 68.922 130.592 69.924 130.592 C 71.848 130.592 72.39 130.863 72.39 131.838 C 72.39 132.434 71.225 134.087 69.843 135.497 C 69.464 135.903 69.139 136.391 69.139 136.608 C 69.139 136.797 68.841 137.394 68.488 137.908 C 68.163 138.423 67.729 139.29 67.54 139.832 C 67.377 140.374 66.916 141.214 66.564 141.702 C 66.185 142.217 65.887 142.813 65.887 143.084 C 65.887 143.328 65.589 143.979 65.209 144.521 C 64.83 145.063 64.342 145.876 64.125 146.336 C 63.881 146.77 63.448 147.393 63.15 147.691 C 62.879 147.962 62.635 148.477 62.635 148.802 C 62.635 149.154 62.255 150.157 61.822 151.051 C 61.388 151.946 61.009 152.948 61.009 153.274 C 61.009 154.059 60.521 155.279 60.06 155.631 C 59.627 155.983 59.112 157.745 59.112 158.883 C 59.112 159.317 58.76 160.401 58.326 161.322 C 56.971 164.167 56.348 165.902 56.023 167.717 C 55.833 168.693 55.481 169.885 55.21 170.4 C 54.939 170.888 54.559 171.972 54.343 172.812 C 54.126 173.652 53.773 174.519 53.584 174.763 C 52.933 175.522 52.825 176.226 52.581 180.264 C 52.473 182.595 52.229 184.437 52.066 184.654 C 51.362 185.494 51.28 186.958 51.822 188.692 C 52.12 189.586 52.446 191.158 52.527 192.134 C 52.662 193.759 52.608 194.03 51.904 195.25 C 51.199 196.415 51.118 196.849 51.091 199.017 C 51.064 200.886 50.901 201.808 50.44 202.946 C 49.952 204.138 49.79 205.249 49.6 208.61 C 49.383 212.404 49.302 212.864 48.652 214.002 C 48.083 214.978 47.893 215.71 47.757 217.688 C 47.622 219.395 47.405 220.398 47.053 220.913 C 46.619 221.59 46.592 221.807 46.89 222.62 C 47.161 223.379 47.161 223.948 46.917 225.384 C 46.43 228.202 46.701 233.08 47.459 235.058 C 47.92 236.278 48.083 237.362 48.137 239.286 C 48.164 240.695 48.327 242.104 48.462 242.402 C 48.625 242.673 48.814 243.73 48.923 244.733 C 49.085 246.494 49.085 246.548 48.327 247.09 C 47.893 247.388 47.378 248.012 47.188 248.472 C 46.89 249.177 46.917 249.448 47.297 250.315 C 47.541 250.857 47.839 252.239 47.974 253.35 C 48.11 254.597 48.435 255.762 48.787 256.358 C 49.112 256.9 49.519 258.391 49.736 259.746 C 49.952 261.073 50.332 262.943 50.576 263.919 C 50.901 265.22 51.009 266.71 50.955 269.61 C 50.901 273.702 51.009 274.244 52.12 275.653 C 52.662 276.33 52.744 276.737 52.798 279.799 C 52.825 283.078 52.879 283.24 53.611 284.189 C 54.912 285.896 55.86 287.359 55.86 287.685 C 55.86 287.847 56.158 288.335 56.483 288.769 C 56.836 289.175 57.649 290.611 58.299 291.966 C 58.949 293.294 59.681 294.703 59.952 295.083 C 60.196 295.462 60.548 296.519 60.711 297.467 C 61.009 299.256 61.957 301.153 63.258 302.426 C 63.665 302.833 64.179 303.565 64.369 304.08 C 64.586 304.567 65.209 305.407 65.751 305.922 C 66.293 306.437 67.242 307.575 67.811 308.442 C 68.786 309.906 68.868 310.177 68.868 311.884 L 68.868 313.727 L 70.548 315.299 C 71.496 316.166 72.634 317.087 73.122 317.358 C 73.637 317.683 74.044 318.171 74.152 318.659 C 74.233 319.092 74.504 319.607 74.748 319.797 C 75.29 320.231 75.913 321.694 75.913 322.48 C 75.913 322.778 76.184 323.401 76.537 323.808 C 77.81 325.461 78.569 326.978 78.759 328.36 C 78.894 329.336 79.192 330.095 79.68 330.664 C 80.954 332.181 82.363 334.485 82.526 335.325 C 82.634 335.785 83.366 336.842 84.179 337.709 C 84.992 338.577 85.669 339.362 85.669 339.471 C 85.669 339.579 86.536 340.555 87.566 341.639 C 88.623 342.75 89.653 343.969 89.842 344.349 C 90.059 344.755 90.411 346.598 90.655 348.468 C 91.17 352.505 91.495 353.102 93.365 353.454 C 94.286 353.617 94.774 353.887 95.181 354.457 C 95.479 354.89 95.94 355.242 96.211 355.242 C 96.834 355.242 99.815 357.221 100.248 357.925 C 100.438 358.25 100.736 358.494 100.926 358.494 C 101.522 358.494 102.66 359.903 103.365 361.502 L 104.042 363.02 L 105.668 363.182 C 107.158 363.345 107.402 363.453 108.839 364.863 C 110.356 366.326 111.549 366.895 113.066 366.895 C 113.473 366.895 114.069 367.112 114.421 367.383 C 114.773 367.654 115.803 368.223 116.697 368.656 C 118.865 369.659 122.686 373.534 122.957 374.943 C 123.147 376.027 124.393 377.572 125.505 378.141 C 125.938 378.358 126.724 379.361 127.401 380.553 C 128.052 381.691 128.784 382.667 129.027 382.748 C 129.271 382.829 129.732 383.154 130.057 383.507 C 130.68 384.184 131.737 387.111 131.737 388.168 C 131.737 388.547 131.9 389.198 132.117 389.604 C 132.306 390.01 132.55 390.742 132.659 391.257 C 132.93 392.72 133.228 392.91 135.233 392.91 C 136.913 392.91 137.076 392.964 137.78 393.75 C 138.377 394.455 138.648 394.563 139.271 394.428 C 139.677 394.319 140.382 393.804 140.843 393.262 L 141.683 392.287 L 143.417 392.639 C 144.962 392.937 145.287 393.127 146.425 394.373 C 148.972 397.11 149.46 397.517 150.517 397.679 C 151.303 397.815 151.926 398.221 152.983 399.305 C 154.69 401.04 155.693 401.229 157.237 400.064 C 158.24 399.333 159.27 399.333 160.815 400.146 C 162.034 400.769 164.771 401.067 166.587 400.769 C 168.863 400.389 169.893 400.633 170.516 401.717 C 171.166 402.801 172.305 403.099 173.659 402.53 C 175.827 401.609 177.264 402.286 177.264 404.183 C 177.264 405.43 177.806 405.782 179.269 405.403 C 181.843 404.752 185.122 406.785 185.502 409.278 C 185.908 411.798 188.781 417.028 189.756 417.028 C 190.678 417.028 191.545 415.89 191.735 414.427 C 192.06 412.232 192.412 411.527 193.686 410.524 L 194.878 409.576 L 197.94 409.576 C 200.975 409.576 201.029 409.576 201.951 408.763 C 202.466 408.302 203.658 407.652 204.607 407.3 L 206.314 406.676 L 207.696 407.408 C 208.915 408.031 209.159 408.086 209.891 407.787 C 210.352 407.598 211.056 407.164 211.463 406.785 C 212.086 406.216 212.357 406.134 213.251 406.297 C 213.901 406.378 214.85 406.297 215.636 406.053 C 216.368 405.836 217.397 405.647 217.939 405.647 C 218.59 405.647 219.077 405.457 219.43 405.078 C 219.701 404.779 220.297 404.346 220.758 404.129 C 221.191 403.912 222.004 403.479 222.519 403.181 C 223.305 402.72 223.793 402.639 225.419 402.774 L 227.37 402.883 L 228.074 401.961 C 228.752 401.067 228.86 401.04 230.54 401.04 C 232.058 401.04 232.383 400.958 232.925 400.389 C 233.25 400.01 234.199 399.468 235.012 399.17 C 236.123 398.736 236.936 398.14 238.318 396.704 C 239.591 395.403 240.459 394.726 241.163 394.536 C 241.732 394.401 242.599 393.967 243.114 393.588 C 243.629 393.208 244.252 392.91 244.55 392.91 C 245.255 392.91 246.068 392.449 247.342 391.257 C 248.426 390.281 249.889 389.658 251.108 389.658 C 251.434 389.658 252.382 388.981 253.249 388.168 C 254.116 387.328 255.2 386.461 255.661 386.244 C 256.149 386 256.772 385.566 257.097 385.295 C 257.395 385.024 258.208 384.672 258.886 384.564 C 259.563 384.428 260.566 384.049 261.108 383.724 C 262.002 383.154 263.14 382.883 266.961 382.341 C 267.774 382.233 269.048 381.935 269.78 381.691 C 270.593 381.42 271.487 381.312 272.11 381.42 C 273.004 381.583 273.221 381.501 273.899 380.743 C 274.874 379.632 276.202 379.306 278.831 379.523 C 280.89 379.686 280.999 379.686 281.432 379.062 C 282.083 378.06 284.467 377.03 287.123 376.542 C 288.451 376.325 289.752 375.919 290.023 375.675 C 290.294 375.431 290.971 375.214 291.54 375.187 C 292.109 375.16 292.949 374.943 293.383 374.7 C 293.844 374.483 295.09 373.995 296.201 373.643 C 297.312 373.29 298.776 372.613 299.453 372.179 C 300.916 371.231 303.274 369.009 303.274 368.575 C 303.274 368.413 303.681 367.843 304.195 367.329 C 305.035 366.407 305.198 366.353 306.797 366.353 C 308.802 366.353 310.699 365.54 311.268 364.456 C 311.458 364.077 312.298 363.074 313.138 362.234 C 313.951 361.367 314.71 360.5 314.845 360.31 C 315.279 359.578 317.067 358.738 317.962 358.82 C 318.693 358.874 318.964 359.091 319.398 359.985 C 319.967 361.123 320.021 362.288 320.021 373.263 C 320.021 378.683 320.021 379.252 320.184 382.883 C 320.265 384.753 320.346 386.569 320.346 386.948 C 320.373 387.328 320.292 388.249 320.184 389.008 C 320.048 390.2 320.103 390.525 320.59 391.203 C 321.078 391.853 321.132 392.124 320.915 392.72 C 320.726 393.181 320.699 395.81 320.78 399.739 C 320.888 405.457 320.97 406.08 321.403 406.46 C 322.216 407.137 322.569 408.058 322.379 409.088 C 322.243 409.874 322.352 410.145 323.056 410.985 C 324.249 412.313 324.357 412.774 324.574 416.405 C 324.655 418.166 324.926 420.28 325.143 421.093 C 325.441 422.123 325.522 423.18 325.414 424.643 C 325.306 425.808 325.36 427.461 325.522 428.328 C 325.658 429.196 325.847 433.044 325.902 436.865 C 326.037 443.802 326.227 445.211 326.959 445.211 C 327.826 445.211 328.043 444.371 328.097 441.092 C 328.151 438.22 328.232 437.759 328.72 437.244 C 329.479 436.458 329.425 435.781 328.639 435.456 C 327.392 434.995 327.446 434.263 328.747 433.504 C 329.831 432.881 329.885 431.418 328.883 430.415 C 328.015 429.548 328.015 428.491 328.883 427.326 C 329.37 426.648 329.533 426.188 329.425 425.564 C 329.343 425.131 329.235 422.854 329.181 420.524 C 329.099 418.193 328.964 415.971 328.855 415.565 C 328.557 414.345 329.425 412.828 330.698 412.34 C 332.27 411.717 332.324 412.096 331.376 416.405 C 330.888 418.546 330.861 419.44 330.888 436.133 C 330.888 442.149 331.023 447.298 331.186 448.057 C 331.321 448.788 331.565 451.471 331.728 454.018 C 331.863 456.539 332.107 459.113 332.243 459.709 C 332.405 460.305 332.541 462.338 332.541 464.235 C 332.541 467.053 332.622 467.758 332.975 468.11 C 333.625 468.733 334.113 468.164 334.411 466.457 C 334.546 465.725 334.844 464.722 335.115 464.235 C 335.468 463.53 335.549 462.961 335.386 461.525 C 335.197 459.492 335.793 455.969 336.47 455.238 C 337.039 454.615 336.985 454.045 336.172 452.88 C 335.522 451.932 335.495 451.715 335.684 449.818 C 335.766 448.707 336.037 447.352 336.254 446.837 C 336.552 446.105 336.579 445.618 336.362 444.669 C 335.928 442.718 336.118 430.632 336.606 429.548 C 336.931 428.816 336.931 428.545 336.633 427.786 C 335.983 426.215 336.01 425.564 336.741 423.776 C 337.473 422.042 337.5 422.014 337.31 417.435 C 337.121 412.042 337.446 406.92 338.015 405.809 C 338.34 405.213 338.367 404.807 338.15 404.129 C 337.934 403.452 337.988 402.991 338.34 402.097 C 338.611 401.473 338.855 399.902 338.936 398.628 C 339.072 396.541 339.289 394.78 340.129 389.523 C 340.264 388.628 340.454 387.219 340.535 386.406 C 340.806 384.049 341.131 383.263 342.107 382.802 C 343.543 382.098 344.275 383.425 343.11 384.645 C 342.595 385.187 342.568 385.377 342.839 387.382 C 343.624 393.262 343.679 394.292 343.326 394.726 C 343.137 394.942 342.784 396.812 342.54 398.845 C 342.161 402.07 342.134 404.075 342.351 415.131 C 342.513 424.86 342.676 428.057 342.974 429.141 C 343.191 429.9 343.381 431.011 343.381 431.635 L 343.381 432.719 L 344.194 432.258 C 345.088 431.743 345.223 431.011 344.573 430.28 C 344.221 429.873 344.194 429.575 344.437 428.356 C 344.654 427.326 344.681 426.161 344.492 424.453 C 344.166 421.418 344.194 403.777 344.519 403.126 C 344.925 402.341 345.548 403.072 345.548 404.292 C 345.548 405.592 345.765 406.189 346.253 406.189 C 346.768 406.189 347.174 405.294 347.174 404.156 C 347.174 403.099 347.5 402.313 348.285 401.446 C 348.665 401.013 348.8 400.362 348.855 398.465 C 348.936 396.379 349.017 396.026 349.424 395.945 C 350.48 395.728 350.697 396.352 350.67 399.387 C 350.67 400.958 350.562 402.883 350.453 403.614 C 350.291 404.752 350.426 405.565 351.185 408.221 L 352.106 411.473 L 351.646 413.37 C 351.077 415.565 351.212 416.486 352.215 417.489 C 352.865 418.112 352.946 418.139 353.353 417.76 C 353.624 417.462 353.759 416.866 353.759 415.89 C 353.732 414.02 354.166 408.926 354.545 406.947 C 354.789 405.62 354.762 405.294 354.383 404.725 C 353.814 403.831 353.841 402.991 354.491 401.555 C 355.223 399.902 355.25 396.839 354.518 396.216 C 353.976 395.728 352.974 393.073 352.703 391.311 C 352.567 390.444 352.648 390.092 353.109 389.496 C 353.868 388.547 353.841 387.734 353.028 386.867 C 352.161 385.919 351.89 383.778 352.296 381.041 C 352.54 379.442 352.757 378.846 353.245 378.412 C 353.597 378.114 353.949 377.653 354.03 377.382 C 354.139 377.138 354.383 376.922 354.627 376.922 C 355.331 376.922 355.142 378.629 354.356 379.361 C 353.543 380.119 353.543 380.201 354.139 381.447 C 354.518 382.26 354.545 382.612 354.247 384.157 C 353.922 385.891 353.922 385.919 354.762 387.165 C 355.467 388.249 355.575 388.628 355.575 390.309 C 355.575 392.558 355.765 393.452 356.253 393.452 C 357.066 393.452 357.282 391.88 357.12 387.002 C 356.903 380.309 357.174 375.323 357.824 374.916 C 358.15 374.7 358.42 374.7 358.773 374.916 C 359.179 375.187 359.233 375.621 359.125 378.466 C 359.071 380.607 359.125 381.799 359.315 381.908 C 359.83 382.206 360.128 381.203 360.317 378.412 C 360.507 376.082 360.616 375.621 361.157 375.052 C 361.51 374.7 361.808 374.239 361.808 374.049 C 361.808 373.588 364.301 372.261 365.602 371.99 C 366.117 371.881 366.875 371.719 367.282 371.637 C 367.905 371.475 368.068 371.556 368.339 372.125 C 368.935 373.426 369.748 373.345 370.696 371.881 C 371.428 370.689 371.428 370.526 370.723 370.12 C 370.073 369.795 370.1 369.28 370.994 366.814 C 371.32 365.974 371.645 364.321 371.726 363.155 C 371.916 360.391 372.322 358.576 372.81 358.386 C 373.433 358.142 374.517 358.711 374.87 359.443 C 375.113 359.985 375.113 360.445 374.842 361.475 C 374.517 362.776 374.517 362.857 375.195 363.67 C 376.116 364.781 376.089 364.944 374.897 365.052 C 374.057 365.106 373.84 365.242 373.786 365.784 C 373.731 366.136 373.813 366.543 373.975 366.705 C 374.409 367.139 374.355 367.735 373.84 368.277 C 373.542 368.602 373.46 369.009 373.569 369.415 C 373.786 370.364 374.517 370.553 375.249 369.849 C 375.574 369.551 375.981 369.361 376.143 369.469 C 376.631 369.768 376.468 370.933 375.899 371.231 C 375.601 371.393 375.357 371.719 375.357 371.963 C 375.357 372.179 374.924 372.776 374.382 373.263 L 373.406 374.158 L 373.813 376.895 C 374.03 378.412 374.355 379.821 374.544 380.038 C 375.059 380.661 375.601 380.526 375.791 379.713 C 375.954 379.144 375.845 378.9 375.412 378.602 C 374.517 378.033 374.626 376.678 375.601 375.729 C 376.008 375.323 376.523 374.483 376.712 373.859 C 376.902 373.236 377.281 372.261 377.552 371.719 C 378.284 370.255 378.23 368.955 377.39 368.413 C 376.523 367.843 376.387 365.947 377.2 365.676 C 377.823 365.486 378.338 364.429 378.338 363.372 C 378.338 361.611 379.233 361.177 380.018 362.559 C 380.344 363.101 380.696 363.372 381.129 363.372 C 381.699 363.372 381.807 363.21 381.942 362.261 C 382.105 361.123 382.512 360.418 382.837 360.744 C 382.945 360.852 383.108 361.394 383.189 361.936 C 383.324 362.722 383.487 362.966 383.894 362.966 C 384.652 362.966 384.815 361.096 384.137 360.364 C 383.894 360.093 383.623 359.253 383.541 358.521 C 383.433 357.356 383.27 357.085 382.241 356.218 C 381.617 355.676 380.967 355.242 380.804 355.242 C 380.289 355.242 379.964 354.213 379.964 352.614 C 379.964 350.825 380.371 349.145 381.617 345.622 C 382.078 344.267 382.484 342.696 382.512 342.099 C 382.539 341.178 382.647 340.988 383.162 340.934 C 384.436 340.744 384.652 341.286 384.517 344.403 C 384.381 347.14 384.327 347.384 383.243 349.308 C 382.241 351.15 382.132 351.557 382.132 353.183 L 382.132 354.999 L 382.999 354.917 C 384.11 354.809 384.463 354.158 384.869 351.34 C 385.113 349.768 385.357 349.064 385.818 348.603 C 386.251 348.17 386.468 347.628 386.495 346.923 C 386.549 345.216 387.118 343.183 387.552 343.183 C 388.446 343.183 388.69 347.465 387.85 348.847 C 387.389 349.579 387.362 349.877 387.633 351.259 C 387.877 352.614 387.85 352.939 387.444 353.644 C 387.2 354.077 387.064 354.565 387.145 354.7 C 387.389 355.08 388.04 355.026 388.284 354.592 C 388.392 354.402 388.771 354.104 389.097 353.915 C 389.476 353.725 389.747 353.264 389.855 352.587 C 390.181 350.798 390.289 350.609 390.858 350.69 C 391.427 350.771 391.671 351.069 392.05 352.126 C 392.348 352.939 392.755 350.961 392.836 348.332 C 392.863 347.14 392.918 346.029 392.945 345.839 C 392.945 345.676 393.514 345.216 394.191 344.836 C 394.842 344.43 395.709 343.698 396.115 343.183 C 396.495 342.669 396.955 342.235 397.118 342.235 C 397.253 342.235 397.795 341.937 398.283 341.557 C 398.771 341.178 399.53 340.88 399.99 340.88 C 401.237 340.88 402.348 339.769 402.727 338.089 C 402.917 337.33 403.378 336.354 403.73 335.948 C 404.543 335.081 404.57 334.512 403.947 331.964 C 403.513 330.149 403.513 329.986 403.947 329.336 C 404.191 328.956 404.516 327.9 404.651 326.978 C 404.814 326.003 405.139 325.054 405.464 324.729 C 405.735 324.431 405.979 323.97 405.979 323.699 C 405.979 322.724 406.63 322.1 408.581 321.206 C 410.83 320.149 410.911 319.932 410.18 317.846 C 409.854 316.924 409.827 316.518 410.098 315.597 C 410.288 314.946 410.451 312.724 410.451 310.529 C 410.478 308.361 410.586 306.166 410.694 305.651 C 410.911 304.703 412.158 301.207 412.917 299.446 C 413.431 298.28 413.215 297.684 412.077 297.007 C 411.209 296.492 411.128 296.356 411.128 295.11 C 411.128 293.592 411.724 292.915 413.052 292.915 C 413.973 292.915 414.272 292.535 414.515 291.018 C 414.597 290.34 414.922 289.094 415.22 288.227 C 415.518 287.305 415.735 285.95 415.735 284.839 C 415.735 283.267 415.627 282.807 414.922 281.723 C 414.488 281.018 414.028 280.449 413.892 280.449 C 413.567 280.449 413.025 279.203 413.025 278.39 C 413.025 278.01 413.242 277.279 413.54 276.71 C 413.838 276.086 414.109 274.758 414.217 273.268 C 414.597 268.499 414.786 267.225 415.247 266.71 C 415.491 266.439 415.762 265.734 415.87 265.138 C 415.952 264.542 416.331 263.187 416.683 262.157 C 417.036 261.1 417.388 259.664 417.496 258.96 C 417.605 258.065 417.903 257.442 418.445 256.873 C 419.393 255.897 419.556 255.085 419.475 251.833 C 419.393 249.719 419.475 249.258 419.908 248.77 C 420.233 248.418 420.667 246.901 421.182 244.408 C 421.615 242.294 422.022 240.478 422.103 240.343 C 422.184 240.234 422.483 238.554 422.754 236.63 C 423.052 234.733 423.404 232.863 423.539 232.484 C 423.675 232.105 423.946 230.885 424.136 229.774 C 424.325 228.663 424.705 227.308 424.976 226.766 C 425.247 226.224 425.653 224.598 425.897 223.108 C 426.141 221.644 426.439 219.991 426.575 219.476 C 426.981 217.905 427.171 213.813 427.252 204.707 C 427.306 199.857 427.469 195.304 427.631 194.356 C 428.092 191.863 429.122 189.722 429.962 189.505 C 431.154 189.207 431.859 189.586 432.428 190.806 C 432.726 191.456 433.078 191.944 433.214 191.917 C 433.376 191.89 433.864 191.754 434.298 191.592 C 434.758 191.456 435.463 191.239 435.897 191.104 C 436.493 190.941 436.764 190.67 436.926 190.047 C 437.197 188.963 437.739 188.746 438.932 189.261 C 439.447 189.478 440.774 189.722 441.858 189.83 C 443.809 189.993 443.864 189.993 444.351 189.261 C 444.622 188.855 445.137 188.231 445.463 187.879 L 446.032 187.256 L 447.549 187.771 C 448.362 188.069 449.283 188.313 449.554 188.313 C 449.853 188.313 450.53 188.611 451.072 188.99 C 452.779 190.155 454.703 191.022 455.543 191.022 C 456.167 191.022 456.465 190.806 456.925 190.074 C 457.467 189.207 457.494 189.017 457.169 188.231 C 456.79 187.256 455.218 185.359 454.432 184.925 C 454.161 184.763 453.619 184.166 453.24 183.597 C 452.562 182.622 452.562 182.568 453.023 181.863 C 453.701 180.86 454.351 179.695 455.028 178.367 C 455.435 177.554 455.977 177.012 457.142 176.362 C 458.578 175.522 458.904 175.468 461.939 175.305 C 464.676 175.17 465.353 175.061 466.139 174.546 C 466.871 174.086 467.494 173.95 468.876 173.95 C 470.8 173.95 471.017 173.787 471.017 172.514 C 470.99 171.511 470.15 170.752 468.551 170.292 C 467.548 170.021 466.762 169.587 466.302 169.045 C 465.787 168.476 465.407 168.286 465.055 168.395 C 464.351 168.612 462.345 168.043 462.156 167.555 C 462.074 167.338 462.156 167.013 462.318 166.796 C 462.779 166.254 462.21 165.929 460.34 165.576 C 459.446 165.414 458.714 165.278 458.687 165.278 C 458.66 165.278 458.172 164.899 457.603 164.465 C 456.79 163.815 456.302 163.652 455.327 163.652 C 454.486 163.652 453.538 163.381 452.454 162.839 C 451.56 162.406 450.584 162.027 450.286 162.027 C 449.961 162.027 449.283 161.81 448.741 161.512 C 448.172 161.241 447.143 160.861 446.438 160.699 C 445.734 160.509 444.704 160.075 444.162 159.696 C 443.62 159.317 442.563 158.856 441.831 158.666 C 441.1 158.477 440.016 158.043 439.419 157.745 C 436.601 156.254 431.913 155.279 427.387 155.252 C 425.843 155.252 424.813 155.116 424.271 154.818 C 423.621 154.466 422.239 154.385 417.361 154.276 C 414.001 154.222 410.83 154.059 410.315 153.897 C 409.8 153.761 408.798 153.626 408.12 153.626 C 407.253 153.626 406.63 153.436 406.142 153.057 C 405.22 152.325 401.942 152 394.76 151.919 C 389.693 151.837 389.259 151.783 388.365 151.241 C 387.66 150.808 386.983 150.645 385.79 150.645 C 384.598 150.645 383.839 150.482 382.945 149.995 C 381.97 149.507 381.102 149.317 378.745 149.182 C 376.279 149.019 375.493 148.856 374.138 148.233 C 373.244 147.8 371.807 147.393 370.913 147.285 C 369.938 147.176 368.989 146.878 368.474 146.499 C 367.743 145.984 367.146 145.876 363.027 145.686 C 358.881 145.469 358.312 145.388 357.472 144.819 C 356.957 144.466 356.09 144.114 355.575 144.006 C 355.06 143.897 354.03 143.572 353.272 143.274 C 352.405 142.922 351.077 142.705 349.532 142.651 C 348.231 142.597 346.172 142.298 344.925 142.027 C 341.971 141.296 341.457 141.242 334.98 140.618 C 331.918 140.32 328.53 139.914 327.446 139.67 C 326.362 139.453 323.409 139.155 320.888 139.019 C 316.959 138.776 316.092 138.64 314.683 138.044 C 313.788 137.665 312.84 137.366 312.623 137.366 C 312.379 137.366 311.675 137.123 311.051 136.852 C 310.428 136.581 308.856 136.201 307.583 136.039 C 305.876 135.849 304.981 135.578 304.277 135.117 C 303.735 134.738 302.84 134.358 302.271 134.25 C 301.702 134.142 300.564 133.789 299.751 133.437 C 298.938 133.112 297.258 132.678 296.011 132.516 C 294.765 132.326 293.22 131.947 292.57 131.676 C 291.811 131.35 290.565 131.134 288.993 131.079 C 286.689 130.998 286.608 131.025 286.527 131.621 C 286.446 132.136 286.635 132.326 287.502 132.678 C 288.234 132.949 288.641 133.302 288.749 133.735 C 288.884 134.277 289.101 134.386 289.968 134.386 C 291.025 134.386 291.811 134.928 291.486 135.469 C 291.161 135.984 289.372 135.605 288.912 134.9 C 288.83 134.792 287.719 134.521 286.446 134.304 C 285.172 134.06 283.681 133.6 283.085 133.247 C 282.164 132.732 281.676 132.624 279.86 132.678 C 278.695 132.705 277.584 132.868 277.422 133.031 C 277.259 133.193 277.123 134.196 277.123 135.28 L 277.123 137.231 L 278.37 137.231 C 279.725 137.258 279.915 137.394 283.329 140.781 C 284.684 142.163 285.199 142.488 286.202 142.651 C 286.879 142.759 287.719 143.057 288.099 143.301 C 288.478 143.545 289.101 143.897 289.535 144.087 C 289.941 144.25 290.266 144.521 290.266 144.683 C 290.266 144.819 290.836 145.252 291.567 145.605 C 292.272 145.984 293.274 146.797 293.789 147.447 C 295.497 149.534 296.689 150.645 297.231 150.645 C 297.529 150.645 298.071 150.862 298.423 151.16 C 298.776 151.431 299.534 151.891 300.076 152.162 C 301.946 153.138 304.06 157.149 302.922 157.582 C 302.298 157.799 297.366 156.932 296.011 156.336 C 295.388 156.038 294.223 155.685 293.437 155.55 C 292.678 155.387 291.432 154.954 290.7 154.574 C 289.237 153.843 287.828 153.707 285.362 154.168 C 284.549 154.303 283.302 154.493 282.57 154.574 C 281.188 154.764 279.969 155.658 279.969 156.498 C 279.969 157.501 283.465 160.292 285.036 160.536 C 285.768 160.644 286.337 160.915 286.608 161.295 C 286.825 161.593 287.394 161.999 287.882 162.135 C 288.966 162.487 289.074 163.219 288.044 163.327 C 287.448 163.409 287.231 163.273 286.988 162.731 L 286.689 162.081 L 283.112 162.216 C 281.161 162.298 279.4 162.487 279.237 162.65 C 279.048 162.785 278.885 163.49 278.885 164.194 C 278.885 165.035 278.749 165.549 278.533 165.631 C 277.909 165.875 272.733 164.899 272.191 164.438 C 271.92 164.222 271.162 163.68 270.484 163.219 C 269.373 162.514 269.048 162.433 266.826 162.406 L 264.387 162.379 L 263.899 161.539 C 263.601 161.051 263.249 160.672 263.086 160.644 C 262.111 160.563 261.325 160.78 260.729 161.349 C 259.807 162.216 258.235 162.487 257.422 161.918 C 256.582 161.322 256.122 161.376 255.173 162.162 C 254.415 162.812 254.387 162.867 254.875 163.192 C 256.853 164.493 256.826 165.007 254.74 165.685 C 253.547 166.091 253.114 166.118 252.003 165.847 C 250.323 165.468 249.537 165.468 248.697 165.847 C 247.857 166.254 247.098 167.744 247.315 168.612 C 247.423 169.045 247.342 169.425 247.044 169.723 C 246.447 170.319 245.933 170.265 245.445 169.587 C 245.174 169.181 244.74 168.991 244.008 168.964 C 243.087 168.937 242.979 169.018 242.897 169.668 C 242.789 170.481 242.897 170.509 244.415 170.427 C 245.391 170.373 245.553 170.807 244.767 171.24 C 244.225 171.511 243.765 171.43 242.654 170.915 C 242.193 170.671 241.895 170.725 241.299 171.105 C 240.838 171.43 239.754 171.674 238.426 171.782 C 236.854 171.918 236.177 172.107 235.716 172.541 C 235.391 172.839 234.632 173.218 234.036 173.381 C 233.223 173.598 232.356 174.275 230.486 176.172 C 229.104 177.554 227.912 178.991 227.803 179.37 C 227.505 180.373 227.153 180.779 225.364 182.242 L 223.738 183.57 L 221.3 183.489 C 217.072 183.381 216.232 183.923 219.213 184.844 C 221.137 185.413 221.327 185.792 221.083 188.177 C 220.92 189.884 220.324 190.887 219.159 191.483 C 218.698 191.7 218.129 192.134 217.912 192.405 C 217.695 192.675 216.937 193.028 216.205 193.163 C 215.5 193.272 214.471 193.705 213.901 194.085 C 213.36 194.464 212.384 194.925 211.734 195.114 C 210.704 195.412 210.514 195.385 209.837 194.898 C 209.43 194.6 208.698 194.139 208.211 193.895 C 207.371 193.461 207.289 193.461 206.449 193.949 C 205.961 194.247 205.121 194.572 204.525 194.654 C 203.956 194.762 202.872 195.142 202.086 195.467 C 201.328 195.819 199.973 196.171 199.078 196.28 C 198.049 196.388 197.1 196.713 196.504 197.093 C 195.854 197.553 194.878 197.824 193.333 198.041 C 192.087 198.204 190.623 198.556 190.081 198.827 C 189.512 199.125 188.266 199.477 187.317 199.64 C 186.315 199.83 185.339 200.182 185.014 200.48 C 184.689 200.778 183.903 201.13 183.225 201.293 C 181.762 201.618 180.516 202.919 180.516 204.165 C 180.488 205.439 179.838 206.957 179.052 207.58 C 178.646 207.905 178.348 208.393 178.348 208.772 C 178.348 209.639 179.459 210.398 180.163 210.046 C 180.434 209.91 181.437 209.694 182.412 209.612 C 183.361 209.504 184.797 209.097 185.61 208.718 C 186.992 208.068 187.372 208.014 194.553 207.77 C 199.756 207.607 202.384 207.607 203.197 207.797 C 203.821 207.959 204.634 208.095 204.986 208.095 C 205.338 208.095 205.961 208.339 206.341 208.637 C 206.72 208.935 207.208 209.179 207.452 209.179 C 207.669 209.179 207.994 208.935 208.157 208.637 C 208.509 207.986 209.186 207.959 210.243 208.501 C 210.65 208.718 211.327 208.962 211.734 209.043 C 212.79 209.233 212.98 210.127 212.167 211.022 C 211.354 211.916 210.595 213.135 210.595 213.515 C 210.595 214.138 212.059 215.737 213.007 216.116 C 213.549 216.333 214.254 216.794 214.606 217.119 C 215.175 217.661 215.527 217.715 217.993 217.715 C 220.351 217.715 220.866 217.634 221.571 217.146 C 222.031 216.848 222.953 216.387 223.657 216.116 C 224.335 215.872 225.066 215.493 225.229 215.276 C 225.662 214.761 226.638 214.626 230.378 214.49 C 233.006 214.409 233.901 214.49 236.068 215.032 C 237.64 215.439 239.429 215.683 240.675 215.683 C 243.033 215.683 245.255 216.252 245.933 217.01 C 246.258 217.363 246.962 217.607 247.965 217.715 C 248.805 217.823 250.024 218.203 250.675 218.582 C 251.542 219.097 252.382 219.287 253.981 219.395 C 255.661 219.531 256.311 219.693 256.989 220.181 C 257.477 220.533 257.992 220.831 258.127 220.831 C 258.29 220.831 258.967 221.211 259.645 221.644 C 260.322 222.078 261.054 222.457 261.298 222.457 C 261.514 222.457 262.544 222.891 263.601 223.406 C 264.631 223.921 265.606 224.354 265.796 224.354 C 265.959 224.354 266.474 224.652 266.907 225.032 C 267.341 225.384 268.208 225.79 268.831 225.953 C 269.454 226.089 270.186 226.387 270.43 226.576 C 271.975 227.877 273.032 228.256 275.118 228.202 C 277.72 228.148 278.343 228.527 278.506 230.316 C 278.722 232.24 278.56 232.348 274.766 232.43 C 272.923 232.484 269.915 232.403 268.045 232.294 L 264.658 232.05 L 262.626 233.08 C 261.514 233.649 260.403 234.11 260.159 234.11 C 259.916 234.11 259.265 234.462 258.696 234.923 C 258.127 235.356 257.558 235.736 257.45 235.736 C 257.016 235.736 256.122 236.82 256.122 237.335 C 256.122 238.121 256.826 238.69 258.208 239.015 C 258.859 239.204 259.482 239.503 259.563 239.692 C 259.726 240.099 259.021 241.264 257.91 242.429 C 257.45 242.89 256.664 243.784 256.176 244.38 C 255.607 245.058 254.956 245.519 254.415 245.627 C 253.927 245.735 253.114 246.088 252.599 246.413 C 249.13 248.554 248.995 248.608 247.748 248.228 C 246.691 247.93 246.637 247.957 245.228 249.014 C 244.09 249.882 243.575 250.098 242.708 250.071 C 241.407 250.044 236.502 251.751 235.689 252.51 C 234.93 253.215 233.819 253.459 232.844 253.133 C 232.356 252.971 231.678 252.944 231.136 253.079 C 230.649 253.215 229.267 253.459 228.074 253.621 C 226.882 253.811 225.446 254.19 224.904 254.461 C 223.44 255.193 221.489 255.139 220.27 254.326 C 219.24 253.621 216.611 252.754 215.473 252.754 C 215.094 252.754 214.281 252.835 213.631 252.944 C 212.872 253.079 211.896 253.025 210.948 252.808 C 209.755 252.51 209.078 252.51 207.587 252.754 C 205.961 253.025 205.582 253.025 204.85 252.646 C 204.281 252.348 202.981 252.158 200.731 252.077 C 198.184 251.968 197.263 251.806 196.612 251.426 C 195.42 250.694 191.22 250.694 189.783 251.426 C 189.079 251.778 187.886 251.968 185.8 252.077 C 184.174 252.185 182.141 252.456 181.328 252.673 C 178.375 253.513 174.527 253.892 168.592 253.892 C 162.44 253.892 161.086 253.73 159.92 252.862 C 159.541 252.564 158.349 252.077 157.292 251.778 C 156.235 251.48 154.582 250.776 153.633 250.234 C 152.333 249.448 151.492 249.177 150.056 249.014 C 148.457 248.825 148.105 248.689 147.428 247.957 C 147.021 247.497 146.56 247.117 146.398 247.117 C 146.262 247.117 145.747 246.603 145.26 246.006 C 144.393 244.895 144.365 244.868 144.826 244.082 C 145.585 242.782 145.314 242.24 143.932 242.24 C 143.634 242.24 143.01 241.589 142.306 240.587 C 141.439 239.313 141.141 238.608 141.059 237.551 C 140.978 236.386 140.788 235.98 139.948 235.14 C 139.406 234.571 138.783 234.11 138.566 234.11 C 138.377 234.11 138.024 233.649 137.807 233.08 C 137.591 232.538 137.157 231.617 136.859 231.048 C 136.398 230.235 136.29 229.449 136.236 227.118 C 136.182 224.815 136.073 224.002 135.612 223.135 C 135.314 222.539 134.962 221.617 134.854 221.102 C 134.501 219.314 134.393 219.151 132.984 218.528 C 132.198 218.176 131.222 217.525 130.843 217.065 C 130.138 216.225 130.03 215.791 129.732 213.135 C 129.596 212.024 129.325 211.536 128.079 210.127 C 126.778 208.637 126.588 208.257 126.345 206.74 C 126.182 205.819 125.857 204.789 125.586 204.518 C 125.206 204.084 125.044 203.244 124.881 200.534 C 124.637 197.011 124.637 196.551 124.692 192.025 C 124.719 189.857 124.637 189.18 124.204 188.34 C 123.337 186.66 123.174 184.492 123.824 182.947 C 124.258 181.89 124.339 181.186 124.285 178.747 C 124.204 176.606 124.095 175.684 123.797 175.359 C 123.31 174.817 123.174 170.075 123.255 157.067 C 123.337 148.911 123.337 148.585 124.177 144.466 C 124.637 142.109 125.234 139.832 125.505 139.399 C 125.776 138.938 126.209 137.746 126.426 136.743 C 126.67 135.74 127.022 134.575 127.239 134.169 C 127.429 133.762 127.754 132.705 127.943 131.811 C 128.106 130.917 128.54 129.752 128.892 129.237 C 129.217 128.722 129.596 127.8 129.705 127.204 C 129.786 126.608 130.166 125.687 130.518 125.172 C 130.87 124.657 131.222 123.79 131.331 123.275 C 131.439 122.76 131.791 121.839 132.144 121.243 C 132.469 120.646 132.903 119.698 133.065 119.156 C 133.255 118.614 133.58 118.018 133.77 117.855 C 133.987 117.665 134.312 117.015 134.474 116.392 C 134.637 115.796 135.043 114.983 135.396 114.603 C 135.721 114.224 136.154 113.465 136.317 112.923 C 136.507 112.381 136.805 111.785 137.022 111.622 C 137.238 111.46 137.591 110.728 137.835 109.996 C 138.078 109.292 138.485 108.506 138.783 108.235 C 139.054 107.991 139.352 107.503 139.433 107.178 C 139.596 106.474 141.276 103.574 141.845 102.951 C 142.062 102.734 142.441 102.111 142.712 101.596 C 142.983 101.081 143.471 100.295 143.823 99.888 C 144.176 99.455 144.474 98.994 144.474 98.859 C 144.474 98.723 144.853 98.1 145.287 97.477 C 145.747 96.881 146.1 96.23 146.1 96.04 C 146.1 95.851 146.344 95.498 146.669 95.2 C 146.994 94.929 147.428 94.333 147.644 93.9 C 147.861 93.493 148.701 92.274 149.514 91.217 C 150.327 90.16 150.978 89.184 150.978 89.049 C 150.978 88.913 151.709 87.938 152.631 86.854 C 153.552 85.797 154.609 84.496 155.015 83.981 C 155.991 82.708 160.815 77.992 162.711 76.448 C 164.229 75.228 167.698 72.41 169.134 71.245 C 170.082 70.432 171.546 69.456 172.657 68.833 C 173.172 68.562 173.849 68.074 174.12 67.749 C 174.418 67.424 174.771 67.18 174.96 67.18 C 175.15 67.18 175.502 66.909 175.8 66.611 C 176.071 66.286 176.857 65.744 177.535 65.419 C 178.212 65.066 179.296 64.524 179.974 64.172 C 180.651 63.847 181.437 63.359 181.735 63.088 C 182.033 62.817 182.792 62.411 183.361 62.221 C 183.957 62.004 184.933 61.516 185.502 61.11 C 186.071 60.73 186.667 60.405 186.83 60.405 C 186.992 60.405 187.48 60.107 187.941 59.755 C 188.401 59.403 189.079 59.023 189.431 58.915 C 189.783 58.806 190.623 58.373 191.301 57.939 C 191.978 57.506 192.737 57.153 193.008 57.153 C 193.252 57.153 193.74 56.937 194.092 56.638 C 194.444 56.367 195.366 55.934 196.125 55.69 C 196.91 55.446 197.75 54.985 197.994 54.714 C 198.265 54.416 198.916 54.118 199.458 54.01 C 200 53.929 200.84 53.603 201.328 53.332 C 201.815 53.061 202.791 52.682 203.495 52.519 C 204.2 52.357 205.257 51.923 205.853 51.598 C 206.449 51.246 207.56 50.893 208.292 50.785 C 209.051 50.677 210.189 50.324 210.866 49.972 C 211.544 49.647 213.116 49.213 214.389 49.051 C 215.663 48.861 217.126 48.482 217.695 48.211 C 218.237 47.94 219.782 47.587 221.11 47.425 C 222.465 47.289 223.928 46.964 224.362 46.747 C 225.771 46.016 228.427 45.799 236.339 45.745 C 245.201 45.69 251.19 45.961 252.707 46.476 C 253.276 46.693 253.845 46.774 253.981 46.693 C 254.225 46.558 257.775 46.856 264.251 47.56 C 266.257 47.804 268.533 48.021 269.265 48.075 C 270.024 48.129 271.08 48.373 271.677 48.617 C 272.246 48.861 273.817 49.159 275.199 49.268 C 276.907 49.43 278.018 49.674 278.804 50.081 C 279.562 50.487 280.646 50.731 282.055 50.839 C 283.221 50.921 284.901 51.273 285.822 51.625 C 286.744 51.977 288.153 52.33 288.939 52.438 C 289.752 52.547 291.107 52.926 292.001 53.278 C 292.922 53.658 294.413 54.01 295.524 54.091 C 296.987 54.2 297.61 54.389 298.125 54.85 C 298.64 55.311 299.263 55.5 300.754 55.609 C 302.163 55.717 303.057 55.961 303.87 56.449 C 304.521 56.828 305.821 57.262 306.797 57.424 C 309.29 57.831 310.347 58.102 311.268 58.563 C 311.729 58.779 312.759 59.132 313.572 59.321 C 315.116 59.646 315.523 59.809 318.449 61.164 C 319.425 61.625 320.644 62.085 321.214 62.167 C 321.756 62.275 322.46 62.6 322.785 62.898 C 323.49 63.576 327.582 65.148 329.316 65.419 C 329.967 65.5 330.996 65.933 331.592 66.34 C 332.189 66.746 333.083 67.234 333.571 67.397 C 334.058 67.559 334.817 67.939 335.224 68.264 C 335.657 68.562 336.091 68.806 336.199 68.806 C 336.308 68.806 336.877 69.212 337.419 69.673 C 337.988 70.161 338.882 70.865 339.451 71.245 C 339.993 71.624 340.969 72.329 341.646 72.789 C 342.297 73.277 343.001 73.684 343.191 73.684 C 343.57 73.684 345.901 75.093 347.418 76.231 C 347.933 76.61 348.584 76.936 348.855 76.936 C 349.126 76.936 349.722 77.261 350.155 77.667 C 352.215 79.591 353.841 80.811 355.629 81.786 C 356.171 82.112 356.713 82.491 356.795 82.626 C 356.903 82.789 357.608 83.196 358.366 83.548 C 359.152 83.873 359.938 84.361 360.155 84.605 C 360.345 84.876 360.643 85.065 360.805 85.065 C 360.941 85.065 361.537 85.472 362.079 85.933 C 363.515 87.179 364.897 87.992 366.144 88.317 C 366.713 88.48 367.553 88.886 367.959 89.211 C 368.366 89.564 369.043 89.97 369.477 90.16 C 369.883 90.323 370.209 90.594 370.209 90.756 C 370.209 90.892 370.669 91.271 371.238 91.569 C 372.566 92.328 373.948 93.276 374.951 94.116 C 377.986 96.772 380.154 98.317 381.184 98.615 C 382.295 98.913 382.457 98.886 383.785 98.181 C 385.167 97.422 385.194 97.341 385.682 95.498 C 385.953 94.442 386.197 93.195 386.197 92.707 C 386.197 91.732 384.869 88.724 383.839 87.342 C 383.487 86.881 383.216 86.393 383.216 86.258 C 383.216 85.824 380.913 83.602 379.449 82.626 C 377.715 81.461 376.008 80.133 375.005 79.239 C 374.599 78.86 374.03 78.562 373.759 78.562 C 373.488 78.562 372.81 78.236 372.214 77.857 C 371.536 77.396 370.561 77.071 369.423 76.909 C 368.42 76.773 367.282 76.529 366.848 76.394 C 366.415 76.231 365.493 76.123 364.816 76.123 C 362.973 76.123 359.83 74.47 356.74 71.895 C 355.494 70.838 354.816 70.486 353.868 70.351 C 352.974 70.215 352.161 69.809 350.806 68.806 C 349.803 68.074 348.556 67.343 348.014 67.18 C 346.849 66.882 346.443 66.557 345.44 65.202 C 345.006 64.578 344.492 64.199 344.112 64.199 C 343.11 64.172 341.646 63.522 340.806 62.736 C 339.831 61.814 335.495 59.348 334.221 58.996 C 333.733 58.861 332.893 58.454 332.378 58.102 C 331.863 57.75 331.105 57.397 330.671 57.289 C 330.238 57.208 329.614 56.828 329.289 56.449 C 328.937 56.097 328.53 55.798 328.395 55.798 C 328.232 55.798 327.555 55.446 326.877 55.013 C 326.2 54.579 325.251 54.145 324.791 54.037 C 324.33 53.956 323.544 53.576 323.056 53.224 C 322.569 52.872 321.62 52.519 320.807 52.411 C 320.021 52.303 318.964 51.923 318.422 51.544 C 317.826 51.164 316.769 50.785 315.767 50.65 C 314.845 50.514 313.816 50.189 313.436 49.891 C 313.057 49.593 312.217 49.268 311.593 49.159 C 310.97 49.051 310.022 48.698 309.507 48.346 C 308.911 47.94 307.772 47.587 306.39 47.371 C 305.198 47.208 303.789 46.829 303.247 46.558 C 302.732 46.314 301.54 45.961 300.618 45.772 C 299.67 45.609 298.532 45.257 298.044 44.959 C 297.583 44.688 296.391 44.363 295.415 44.254 C 294.44 44.173 292.976 43.794 292.163 43.468 C 291.35 43.116 290.077 42.764 289.318 42.655 C 288.586 42.547 287.367 42.222 286.608 41.978 C 285.145 41.463 283.275 41.029 281.324 40.758 C 280.646 40.677 279.373 40.379 278.478 40.081 C 277.584 39.81 275.823 39.458 274.549 39.295 C 273.275 39.16 271.704 38.78 271.026 38.509 C 270.349 38.211 268.723 37.832 267.368 37.642 C 266.04 37.479 264.143 37.073 263.167 36.802 C 262.165 36.504 259.97 36.179 258.019 36.043 C 255.959 35.908 254.306 35.664 253.818 35.42 C 253.358 35.203 251.542 34.878 249.753 34.688 C 244.442 34.146 242.247 33.848 240.946 33.442 C 240.269 33.252 238.507 33.008 237.017 32.927 C 229.592 32.466 226.503 32.195 224.931 31.816 C 223.603 31.518 221.462 31.409 215.744 31.436 C 208.997 31.436 208.157 31.491 206.802 31.978 Z M 116.02 80.459 C 116.318 80.648 116.345 80.838 116.155 81.163 C 115.749 81.813 115.369 81.678 115.261 80.865 C 115.153 80.133 115.369 80.025 116.02 80.459 Z M 114.611 82.87 C 114.475 83.521 113.581 83.602 113.581 82.952 C 113.581 82.681 113.662 82.383 113.744 82.274 C 114.042 81.976 114.692 82.41 114.611 82.87 Z M 108.107 92.057 C 108.161 92.409 108.026 92.734 107.755 92.816 C 107.158 93.06 106.969 92.789 107.186 91.976 C 107.402 91.136 107.999 91.217 108.107 92.057 Z M 311.648 163.68 C 312.813 165.17 313.111 166.444 312.325 166.742 C 312.081 166.823 311.133 166.904 310.184 166.904 C 307.8 166.904 307.583 166.552 308.721 164.547 C 309.751 162.704 310.049 162.298 310.32 162.298 C 310.455 162.298 311.051 162.921 311.648 163.68 Z M 266.446 237.362 C 267.178 237.768 267.097 238.337 266.094 239.53 C 264.658 241.264 263.438 240.776 263.438 238.473 C 263.438 237.335 265.173 236.684 266.446 237.362 Z M 406.061 260.884 C 406.223 261.697 405.681 262.835 405.139 262.835 C 404.624 262.835 404.489 262.455 404.597 261.371 C 404.706 260.206 405.817 259.854 406.061 260.884 Z M 376.441 346.164 C 376.577 346.517 376.685 348.143 376.658 349.741 C 376.631 352.234 376.55 352.858 375.981 353.942 C 375.574 354.755 375.168 355.242 374.87 355.242 C 374.246 355.242 371.835 352.966 371.835 352.397 C 371.835 351.747 372.376 350.852 373.135 350.256 C 373.731 349.768 373.786 349.633 373.596 348.007 C 373.379 345.92 373.65 345.487 375.113 345.487 C 376.008 345.487 376.225 345.595 376.441 346.164 Z M 352.188 361.529 C 352.296 364.266 352.269 364.483 351.7 364.863 C 351.375 365.079 350.887 365.269 350.616 365.269 C 350.155 365.269 350.128 365.134 350.291 364.239 C 350.399 363.697 350.508 362.207 350.535 360.933 C 350.535 359.632 350.724 358.223 350.941 357.736 L 351.321 356.814 L 351.7 357.736 C 351.944 358.25 352.134 359.822 352.188 361.529 Z M 354.762 364.185 C 354.762 364.321 354.654 364.456 354.518 364.456 C 354.356 364.456 354.166 364.321 354.085 364.185 C 354.003 364.023 354.112 363.914 354.329 363.914 C 354.572 363.914 354.762 364.023 354.762 364.185 Z M 351.022 367.139 C 351.51 368.06 351.917 368.413 352.73 368.711 C 354.247 369.226 354.789 369.876 354.952 371.366 C 355.087 372.532 355.033 372.694 354.247 373.399 C 353.787 373.832 353.407 374.429 353.407 374.754 C 353.407 375.079 352.946 375.729 352.405 376.244 C 351.321 377.247 350.887 377.166 350.562 375.919 C 350.48 375.54 350.02 374.862 349.559 374.429 C 348.746 373.67 348.719 373.643 348.936 371.692 C 349.044 370.635 349.126 369.09 349.098 368.277 C 349.071 367.329 349.207 366.597 349.505 366.163 C 349.993 365.377 350.155 365.486 351.022 367.139 Z M 350.264 378.52 C 350.508 378.9 350.155 379.632 349.749 379.632 C 349.261 379.632 348.99 379.171 349.18 378.683 C 349.342 378.222 350.047 378.141 350.264 378.52 Z M 349.884 388.33 C 349.884 388.628 349.776 388.791 349.613 388.71 C 349.478 388.628 349.342 388.357 349.342 388.141 C 349.342 387.924 349.478 387.761 349.613 387.761 C 349.776 387.761 349.884 388.005 349.884 388.33 Z M 330.888 393.289 C 331.132 393.56 331.105 393.723 330.78 393.994 C 330.319 394.373 329.56 394.184 329.56 393.642 C 329.56 392.856 330.373 392.639 330.888 393.289 Z M 331.023 396.189 C 331.999 396.65 333.435 398.736 333.218 399.441 C 333.11 399.739 333.218 400.389 333.462 400.904 C 333.869 401.744 333.869 401.934 333.517 402.801 C 333.273 403.343 332.731 403.966 332.243 404.237 C 331.755 404.481 331.159 404.915 330.861 405.159 C 330.21 405.782 330.183 405.782 329.696 404.834 C 329.099 403.668 329.181 402.855 330.102 401.717 C 331.376 400.091 331.078 399.143 329.289 399.143 C 328.503 399.143 328.097 398.926 327.257 398.059 C 325.766 396.541 326.2 396.162 329.614 395.945 C 330.021 395.918 330.644 396.026 331.023 396.189 Z M 331.592 406.46 C 331.674 406.595 331.565 407.029 331.321 407.381 C 330.888 408.031 330.915 408.113 331.484 409.142 C 332.243 410.524 332.026 411.202 330.861 410.958 C 329.56 410.687 329.208 410.281 329.37 409.115 C 329.614 407.3 331.051 405.565 331.592 406.46 Z" stroke="none" style=""/>
  <path d="M 350.833 369.713 C 350.345 370.445 350.48 371.908 351.104 372.776 C 351.429 373.209 351.483 373.182 351.998 372.342 C 352.296 371.854 352.784 371.285 353.109 371.068 C 353.949 370.472 353.814 369.93 352.703 369.469 C 351.402 368.927 351.321 368.955 350.833 369.713 Z" stroke="none" style=""/>
  <path d="M 316.498 124.82 C 315.035 125.199 317.122 125.985 319.615 125.985 C 320.78 125.985 321.159 125.904 321.159 125.578 C 321.159 125.362 320.915 125.063 320.644 124.901 C 320.13 124.63 317.42 124.576 316.498 124.82 Z" stroke="none" style=""/>
  <path d="M 322.596 125.985 C 320.97 126.635 322.46 127.529 325.631 127.8 C 326.931 127.909 327.772 128.153 328.286 128.532 C 328.964 129.047 329.506 129.101 333.788 129.183 C 337.825 129.291 338.503 129.237 338.503 128.884 C 338.503 128.668 338.178 128.37 337.771 128.207 C 336.714 127.8 332.378 127.231 330.861 127.286 C 330.021 127.34 329.316 127.177 328.693 126.825 C 328.205 126.527 326.85 126.175 325.685 126.012 C 323.246 125.66 323.381 125.66 322.596 125.985 Z" stroke="none" style=""/>
  <path d="M 345.901 129.697 C 345.305 129.914 345.521 130.781 346.361 131.513 C 347.229 132.218 347.5 132.299 351.158 132.732 C 352.35 132.895 353.841 133.274 354.41 133.573 C 355.9 134.331 361.239 134.684 361.754 134.033 C 361.97 133.789 362.079 133.383 362.025 133.112 C 361.943 132.705 361.537 132.597 359.423 132.434 C 357.797 132.326 356.415 132.055 355.575 131.703 C 354.843 131.378 353.299 130.998 352.134 130.836 C 350.968 130.7 349.315 130.321 348.448 130.023 C 346.876 129.508 346.497 129.454 345.901 129.697 Z" stroke="none" style=""/>
  <path d="M 67.106 133.031 C 66.781 133.545 67.757 134.711 68.407 134.602 C 68.868 134.548 69.003 134.331 69.003 133.708 C 69.003 133.003 68.895 132.895 68.136 132.814 C 67.675 132.76 67.215 132.868 67.106 133.031 Z" stroke="none" style=""/>
  <path d="M 324.276 136.553 C 324.194 136.689 324.357 136.824 324.655 136.824 C 324.98 136.824 325.224 136.689 325.224 136.553 C 325.224 136.391 325.062 136.282 324.845 136.282 C 324.628 136.282 324.357 136.391 324.276 136.553 Z" stroke="none" style=""/>
  <path d="M 275.66 153.734 C 275.47 153.951 275.362 154.466 275.416 154.899 C 275.498 155.631 275.579 155.658 276.852 155.658 C 278.099 155.658 278.207 155.604 278.289 154.954 C 278.37 154.141 277.936 153.707 276.798 153.463 C 276.256 153.355 275.904 153.436 275.66 153.734 Z" stroke="none" style=""/>
  <path d="M 265.932 155.116 C 264.441 156.2 264.279 156.417 264.522 156.878 C 264.739 157.257 265.092 157.42 265.769 157.42 C 267.395 157.42 268.858 156.363 268.858 155.143 C 268.858 154.737 268.154 153.897 267.801 153.897 C 267.693 153.897 266.853 154.439 265.932 155.116 Z" stroke="none" style=""/>
  <path d="M 260.729 157.962 C 260.729 158.314 260.918 158.504 261.216 158.504 C 261.867 158.504 262.084 158.287 261.894 157.799 C 261.677 157.203 260.729 157.338 260.729 157.962 Z" stroke="none" style=""/>
  <path d="M 257.666 159.073 C 257.152 159.371 257.043 159.994 257.504 160.265 C 257.937 160.563 259.103 160.157 259.103 159.723 C 259.103 159.154 258.235 158.775 257.666 159.073 Z" stroke="none" style=""/>
  <path d="M 206.124 180.86 C 205.69 181.077 204.634 181.375 203.821 181.565 C 203.008 181.728 201.978 182.053 201.517 182.297 C 200.487 182.811 197.317 183.435 195.61 183.435 C 194.77 183.435 193.875 183.679 193.035 184.085 C 192.331 184.465 190.976 184.898 190 185.061 C 189.052 185.223 187.941 185.548 187.507 185.765 C 187.101 185.982 186.125 186.28 185.339 186.443 C 184.553 186.605 183.578 186.958 183.171 187.229 C 182.792 187.527 181.87 187.906 181.139 188.069 C 179.35 188.502 178.89 188.773 178.89 189.397 C 178.89 189.884 179.079 189.938 180.434 189.938 C 181.274 189.938 183.442 189.749 185.231 189.505 C 188.157 189.098 188.591 189.098 189.838 189.478 C 190.596 189.695 191.897 189.993 192.71 190.074 C 193.523 190.182 194.607 190.426 195.122 190.643 C 195.61 190.86 196.125 190.941 196.287 190.86 C 196.423 190.779 197.29 190.67 198.211 190.616 C 201.029 190.48 204.227 189.722 206.26 188.692 C 207.289 188.15 208.157 187.608 208.157 187.5 C 208.157 187.391 208.59 187.039 209.105 186.714 C 209.701 186.361 210.216 185.765 210.487 185.061 C 211.002 183.76 211.517 183.435 213.089 183.435 C 214.633 183.435 215.473 183.191 215.473 182.73 C 215.473 182.188 214.714 181.89 212.899 181.673 C 212.005 181.565 210.541 181.24 209.647 180.969 C 207.75 180.373 207.235 180.373 206.124 180.86 Z" stroke="none" style=""/>
  <path d="M 177.589 190.264 C 177.074 190.779 177.209 191.077 177.86 190.968 C 178.212 190.914 178.51 190.67 178.564 190.399 C 178.673 189.857 178.077 189.776 177.589 190.264 Z" stroke="none" style=""/>
  <path d="M 435.869 194.979 C 435.788 195.223 435.842 195.846 436.032 196.334 C 436.276 196.984 436.276 197.391 436.086 197.77 C 435.653 198.556 435.707 202.269 436.14 202.621 C 436.33 202.783 436.601 202.838 436.764 202.729 C 437.197 202.458 437.685 200.832 437.685 199.721 C 437.685 199.179 437.875 198.448 438.119 198.122 C 438.606 197.418 438.444 196.713 437.848 196.713 C 437.604 196.713 437.306 196.28 437.143 195.629 C 436.845 194.518 436.195 194.166 435.869 194.979 Z" stroke="none" style=""/>
  <path d="M 442.319 199.261 C 442.156 199.45 441.696 200.48 441.343 201.564 C 440.558 203.786 440.395 207.255 441.045 207.797 C 441.587 208.257 441.94 207.661 442.075 206.008 C 442.156 205.087 442.455 204.22 442.915 203.569 C 443.864 202.187 444.135 200.453 443.538 199.559 C 443.024 198.8 442.753 198.719 442.319 199.261 Z" stroke="none" style=""/>
  <path d="M 436.059 205.385 C 436.059 205.683 436.249 205.927 436.466 205.927 C 436.682 205.927 436.872 205.683 436.872 205.385 C 436.872 205.087 436.682 204.843 436.466 204.843 C 436.249 204.843 436.059 205.087 436.059 205.385 Z" stroke="none" style=""/>
  <path d="M 439.176 218.663 C 439.094 218.962 438.959 220.045 438.905 221.102 C 438.823 222.755 438.715 223.081 438.092 223.623 C 437.197 224.381 436.872 226.36 437.523 227.2 C 437.875 227.687 437.956 227.687 438.335 227.335 C 438.552 227.118 438.823 226.197 438.932 225.303 C 439.04 224.273 439.311 223.46 439.636 223.081 C 440.314 222.349 440.666 219.178 440.124 218.528 C 439.663 217.986 439.392 218.013 439.176 218.663 Z" stroke="none" style=""/>
  <path d="M 247.775 239.936 C 246.908 241.833 247.829 242.267 249.482 240.776 C 250.648 239.692 250.539 239.259 249.103 239.259 C 248.263 239.259 248.019 239.394 247.775 239.936 Z" stroke="none" style=""/>
  <path d="M 434.433 244.272 C 434.054 244.706 434.298 245.22 434.867 245.22 C 435.273 245.22 435.409 244.272 435.002 244.028 C 434.867 243.947 434.623 244.055 434.433 244.272 Z" stroke="none" style=""/>
  <path d="M 224.822 248.96 C 224.524 249.014 224.118 249.204 223.928 249.367 C 223.115 250.017 225.337 250.722 226.286 250.125 C 227.126 249.583 226.042 248.716 224.822 248.96 Z" stroke="none" style=""/>
  <path d="M 412.862 295.489 C 412.673 295.977 412.944 296.438 413.431 296.438 C 413.838 296.438 414.19 295.706 413.946 295.327 C 413.73 294.947 413.025 295.028 412.862 295.489 Z" stroke="none" style=""/>
  <path d="M 416.25 297.169 C 416.25 297.278 416.168 297.955 416.114 298.66 C 415.952 300.015 416.331 300.584 416.819 299.689 C 417.198 298.985 417.063 297.196 416.629 297.034 C 416.439 296.98 416.277 297.034 416.25 297.169 Z" stroke="none" style=""/>
  <path d="M 407.985 323.618 C 407.551 324.133 407.009 324.593 406.792 324.675 C 406.467 324.783 406.467 324.919 406.874 325.515 C 407.117 325.894 407.334 326.545 407.334 326.924 C 407.334 327.303 407.47 328.171 407.632 328.848 C 407.903 329.878 408.174 330.203 409.367 331.016 C 410.993 332.073 411.128 332.398 410.938 334.593 C 410.749 336.68 411.02 336.896 413.459 336.653 C 415.193 336.463 415.274 336.436 414.705 336.056 C 414.38 335.84 414.109 335.487 414.109 335.298 C 414.109 335.081 413.838 334.647 413.54 334.349 C 413.215 334.024 412.781 333.021 412.591 332.127 C 412.375 331.233 411.941 330.095 411.643 329.607 C 411.291 329.011 411.02 327.845 410.83 326.192 C 410.532 323.618 410.342 323.184 409.34 322.886 C 408.933 322.751 408.581 322.968 407.985 323.618 Z" stroke="none" style=""/>
  <path d="M 414.488 340.717 C 414.19 341.503 414.515 342.099 415.193 342.099 C 415.708 342.099 415.897 341.937 415.952 341.449 C 416.087 340.501 414.814 339.877 414.488 340.717 Z" stroke="none" style=""/>
  <path d="M 399.855 343.996 C 399.611 344.376 399.503 344.864 399.611 345.216 C 399.719 345.541 399.719 346.381 399.611 347.14 L 399.421 348.468 L 398.256 348.468 C 395.655 348.468 394.489 349.172 395.14 350.365 C 395.384 350.825 395.546 350.852 395.98 350.636 C 396.278 350.473 396.847 350.365 397.253 350.419 C 398.256 350.527 398.229 351.449 397.226 351.936 C 396.224 352.424 396.061 352.912 396.63 353.779 C 397.172 354.619 396.955 355.893 396.169 356.435 C 395.655 356.787 395.492 356.787 394.625 356.408 C 393.487 355.893 392.43 355.866 392.159 356.354 C 392.023 356.543 391.861 357.221 391.752 357.871 C 391.563 359.118 391.861 359.605 394.001 361.828 L 394.733 362.586 L 393.92 363.237 L 393.107 363.914 L 393.08 369.659 C 393.053 374.781 393.107 375.54 393.568 376.461 C 394.056 377.491 394.056 377.518 393.541 378.168 C 392.836 379.062 392.565 380.363 392.972 380.851 C 393.405 381.366 394.327 381.366 394.327 380.878 C 394.327 380.661 394.571 380.228 394.869 379.875 C 395.411 379.225 395.411 379.225 395.817 379.74 C 396.061 380.065 396.224 380.851 396.224 381.827 C 396.224 383.588 396.413 384.238 396.901 384.238 C 397.606 384.238 397.931 383.344 398.148 380.905 C 398.256 379.523 398.663 377.464 399.069 376.271 C 399.448 375.079 399.719 373.968 399.638 373.751 C 399.557 373.561 399.177 373.263 398.798 373.128 C 398.202 372.911 398.121 372.694 398.121 371.664 C 398.121 370.987 397.985 369.822 397.822 369.063 C 397.606 367.979 397.606 367.247 397.877 365.865 C 398.337 363.616 398.283 363.101 397.443 362.424 C 397.064 362.126 396.63 361.34 396.44 360.581 C 396.169 359.497 396.169 359.253 396.522 358.901 C 397.145 358.278 397.768 358.657 397.985 359.795 C 398.337 361.719 399.015 362.207 400.153 361.367 C 400.641 361.015 400.641 360.96 400.18 359.199 C 399.801 357.871 399.746 357.302 399.963 357.085 C 400.478 356.57 401.074 357.356 401.156 358.711 C 401.237 359.795 401.318 359.985 401.86 360.066 C 402.619 360.174 402.971 360.879 402.429 361.231 C 402.212 361.367 401.725 361.475 401.318 361.475 C 400.288 361.475 400.343 362.044 401.508 363.345 C 402.05 363.941 402.592 364.808 402.754 365.323 C 403.08 366.543 402.754 376.786 402.321 378.006 C 402.05 378.791 402.05 379.361 402.321 380.77 C 402.511 381.854 402.565 383.073 402.456 383.859 C 402.321 384.591 402.348 386.515 402.483 388.168 C 402.619 389.794 402.727 393.696 402.727 396.839 C 402.754 403.56 403.025 406.947 403.567 407.3 C 404.38 407.815 404.76 407.435 404.787 406.053 C 404.787 405.294 404.949 404.427 405.112 404.102 C 405.302 403.777 405.437 403.126 405.437 402.639 C 405.437 402.151 405.627 400.715 405.871 399.441 C 406.44 396.46 406.277 393.94 405.464 393.073 C 404.841 392.395 404.733 391.203 405.193 390.01 C 405.356 389.604 405.519 388.628 405.573 387.897 C 405.654 387.138 405.817 385.322 405.952 383.832 C 406.332 379.55 406.304 376.082 405.844 375.296 C 405.112 374.022 405.085 373.914 405.437 373.263 C 405.627 372.911 405.708 372.342 405.627 371.99 C 405.546 371.637 405.356 370.879 405.193 370.255 C 405.031 369.578 405.004 368.819 405.139 368.331 C 405.275 367.871 405.275 367.356 405.139 367.139 C 404.706 366.434 404.895 365.621 405.573 365.161 C 406.548 364.51 406.44 363.779 405.248 363.182 C 404.326 362.749 404.191 362.559 404.055 361.475 C 403.974 360.798 403.703 359.795 403.432 359.253 C 402.971 358.142 402.836 355.107 403.269 354.836 C 403.405 354.755 403.649 354.267 403.784 353.725 C 404.109 352.587 403.595 350.907 402.592 349.687 L 401.914 348.874 L 401.345 349.606 C 400.695 350.5 400.153 350.581 399.746 349.85 C 399.313 349.037 399.421 348.766 400.207 348.576 C 401.372 348.278 402.727 346.652 402.727 345.595 C 402.727 343.969 402.321 343.319 401.237 343.319 C 400.532 343.319 400.18 343.481 399.855 343.996 Z M 395.898 374.049 C 396.007 374.971 395.763 376.109 395.438 376.109 C 395.14 376.109 394.869 374.401 395.058 373.67 C 395.275 372.884 395.79 373.128 395.898 374.049 Z" stroke="none" style=""/>
  <path d="M 416.412 345.758 C 416.141 346.218 416.738 346.76 417.09 346.408 C 417.307 346.191 417.252 346.002 416.981 345.785 C 416.71 345.541 416.548 345.541 416.412 345.758 Z" stroke="none" style=""/>
  <path d="M 417.767 352.262 C 417.551 352.939 417.794 353.346 418.445 353.346 C 419.041 353.346 419.366 352.587 418.96 352.099 C 418.526 351.557 417.957 351.638 417.767 352.262 Z" stroke="none" style=""/>
  <path d="M 387.01 363.399 C 387.01 363.697 387.145 363.86 387.281 363.779 C 387.444 363.697 387.552 363.426 387.552 363.21 C 387.552 362.993 387.444 362.83 387.281 362.83 C 387.145 362.83 387.01 363.074 387.01 363.399 Z" stroke="none" style=""/>
  <path d="M 381.699 364.781 C 381.59 365.269 381.536 366.543 381.563 367.627 C 381.617 369.361 381.563 369.605 381.075 369.876 C 380.371 370.228 380.289 371.312 380.967 371.177 C 381.211 371.122 381.509 370.797 381.59 370.418 C 381.699 370.011 381.997 369.713 382.403 369.605 C 382.972 369.469 383.081 369.253 383.162 368.304 C 383.216 367.491 383.433 367.031 383.921 366.651 C 384.734 366.001 384.761 365.323 383.948 365.025 C 383.595 364.89 383.162 364.592 382.972 364.348 C 382.403 363.67 381.915 363.833 381.699 364.781 Z" stroke="none" style=""/>
  <path d="M 383.677 370.309 C 383.568 370.418 383.487 371.393 383.487 372.505 C 383.487 374.076 383.568 374.537 383.921 374.672 C 384.679 374.943 384.923 374.347 384.707 372.64 C 384.517 370.987 384.056 369.93 383.677 370.309 Z" stroke="none" style=""/>
  <path d="M 365.71 374.076 C 365.358 374.943 365.439 377.138 365.819 377.518 C 366.388 378.087 366.713 377.274 366.604 375.621 C 366.496 374.049 366.008 373.236 365.71 374.076 Z" stroke="none" style=""/>
  <path d="M 368.881 375.54 C 368.42 376.38 368.501 378.954 368.989 379.361 C 369.694 379.957 369.965 379.306 369.883 377.193 C 369.802 375.133 369.423 374.51 368.881 375.54 Z" stroke="none" style=""/>
  <path d="M 380.506 375.946 C 380.506 376.461 380.642 376.976 380.777 377.057 C 380.94 377.166 381.048 376.786 381.048 376.136 C 381.048 375.513 380.94 375.025 380.777 375.025 C 380.642 375.025 380.506 375.431 380.506 375.946 Z" stroke="none" style=""/>
  <path d="M 370.1 380.77 C 369.775 382.016 369.91 383.94 370.398 384.293 C 372.322 385.81 373.352 387.463 372.647 387.897 C 372.241 388.141 372.322 389.035 372.756 389.198 C 372.973 389.279 373.298 389.604 373.46 389.902 C 373.704 390.363 373.623 390.607 372.946 391.311 C 372.404 391.88 372.078 392.558 371.943 393.344 C 371.699 395.078 371.943 399.36 372.322 399.739 C 372.946 400.362 373.271 399.468 373.488 396.487 C 373.65 394.319 373.84 393.289 374.246 392.612 C 375.005 391.311 375.168 386.433 374.49 385.756 C 374.111 385.404 374.084 385.16 374.301 384.591 C 374.599 383.751 374.219 383.154 373.352 383.154 C 372.404 383.154 371.862 382.558 371.78 381.393 C 371.699 380.445 371.618 380.309 370.994 380.228 C 370.452 380.174 370.236 380.282 370.1 380.77 Z" stroke="none" style=""/>
  <path d="M 391.779 384.564 C 391.427 385.133 391.373 385.675 391.508 387.599 C 391.725 390.119 392.132 391.122 392.755 390.525 C 393.324 389.983 393.243 384.916 392.647 384.347 C 392.24 383.94 392.186 383.967 391.779 384.564 Z" stroke="none" style=""/>
  <path d="M 367.472 385.485 C 366.902 386.162 366.848 393.56 367.39 394.021 C 367.634 394.211 367.878 394.238 368.014 394.102 C 368.42 393.669 368.908 386.217 368.583 385.593 C 368.23 384.943 367.959 384.916 367.472 385.485 Z" stroke="none" style=""/>
  <path d="M 395.004 387.301 C 394.733 388.656 394.923 389.794 395.411 389.794 C 395.736 389.794 395.817 389.441 395.817 388.195 C 395.817 386.379 395.275 385.783 395.004 387.301 Z" stroke="none" style=""/>
  <path d="M 391.752 395.349 C 391.508 396.081 392.077 398.005 392.863 399.224 C 393.622 400.389 393.649 400.362 392.376 400.986 C 391.183 401.609 391.075 402.286 392.132 402.53 C 392.728 402.666 393.026 402.91 393.134 403.37 C 393.243 403.777 393.487 404.021 393.812 404.021 C 394.354 404.021 394.435 403.316 394.083 401.717 C 393.947 401.229 394.029 400.498 394.272 399.875 C 394.814 398.492 394.543 397.192 393.46 395.891 C 392.457 394.699 391.996 394.536 391.752 395.349 Z" stroke="none" style=""/>
  <path d="M 367.119 399.333 C 367.011 400.877 366.767 402.341 366.523 402.855 C 366.035 403.777 366.198 404.292 366.93 404.292 C 367.634 404.292 368.041 403.75 368.041 402.801 C 368.041 402.368 368.23 401.202 368.447 400.254 C 368.827 398.682 368.827 398.411 368.447 397.598 C 367.661 395.972 367.282 396.46 367.119 399.333 Z" stroke="none" style=""/>
  <path d="M 388.636 399.793 C 388.284 400.254 388.5 401.744 388.961 402.015 C 389.639 402.449 390.018 400.281 389.34 399.712 C 389.069 399.468 388.907 399.495 388.636 399.793 Z" stroke="none" style=""/>
  <path d="M 390.045 402.991 C 389.828 403.208 389.72 404.481 389.72 406.974 C 389.72 410.606 389.72 410.633 388.988 411.419 C 388.229 412.177 388.229 412.232 388.148 416.161 C 388.067 420.388 388.419 422.583 389.178 422.583 C 389.937 422.583 390.262 420.849 390.099 417.95 L 389.937 415.185 L 390.777 414.291 C 391.346 413.695 391.563 413.261 391.427 412.99 C 390.966 411.961 391.481 407.137 392.186 406.134 C 392.863 405.186 392.836 404.888 392.05 404.265 C 391.671 403.966 391.292 403.506 391.21 403.208 C 391.021 402.584 390.533 402.503 390.045 402.991 Z" stroke="none" style=""/>
  <path d="M 372.105 405.349 C 371.97 405.647 371.835 406.27 371.835 406.731 C 371.835 407.462 371.916 407.571 372.458 407.489 C 373.108 407.408 373.352 406.622 373.081 405.484 C 372.864 404.698 372.485 404.644 372.105 405.349 Z" stroke="none" style=""/>
  <path d="M 365.873 406.351 C 365.277 407.896 365.819 409.007 367.092 408.844 C 367.797 408.763 367.905 408.627 367.986 407.842 C 368.149 406.243 367.851 405.647 366.957 405.647 C 366.306 405.647 366.062 405.809 365.873 406.351 Z" stroke="none" style=""/>
  <path d="M 393.432 406.893 C 393.161 407.815 393.432 413.614 393.758 413.722 C 393.92 413.776 394.056 413.668 394.083 413.451 C 394.083 413.261 394.164 412.177 394.245 411.066 C 394.489 408.167 394.408 407.245 393.974 406.785 C 393.622 406.46 393.541 406.46 393.432 406.893 Z" stroke="none" style=""/>
  <path d="M 345.847 409.142 C 345.657 409.468 345.548 410.579 345.603 411.69 C 345.657 413.261 345.765 413.641 346.145 413.722 C 346.714 413.831 346.903 413.234 346.985 411.121 C 347.012 409.874 346.931 409.359 346.578 409.007 C 346.172 408.6 346.118 408.6 345.847 409.142 Z" stroke="none" style=""/>
  <path d="M 403.459 409.63 C 403.215 409.847 403.215 411.148 403.432 411.717 C 403.513 411.961 403.757 412.15 403.947 412.15 C 404.38 412.15 404.624 411.527 404.624 410.362 C 404.624 409.657 404.516 409.44 404.137 409.44 C 403.866 409.44 403.54 409.522 403.459 409.63 Z" stroke="none" style=""/>
  <path d="M 367.282 412.611 C 367.336 413.343 367.499 413.912 367.634 413.912 C 367.797 413.912 367.932 413.343 367.986 412.611 C 368.068 411.581 367.986 411.337 367.634 411.337 C 367.282 411.337 367.201 411.581 367.282 412.611 Z" stroke="none" style=""/>
  <path d="M 403.107 414.752 C 402.998 415.131 403.08 415.755 403.242 416.134 C 403.676 417.109 404.353 416.486 404.353 415.104 C 404.353 414.237 404.272 414.047 403.811 414.047 C 403.459 414.047 403.215 414.291 403.107 414.752 Z" stroke="none" style=""/>
  <path d="M 365.629 416.134 C 365.249 417.543 365.927 420.28 366.659 420.28 C 366.984 420.28 367.526 419.575 367.336 419.386 C 367.255 419.305 367.092 418.356 367.011 417.245 C 366.848 415.7 366.713 415.267 366.361 415.185 C 366.035 415.131 365.819 415.375 365.629 416.134 Z" stroke="none" style=""/>
  <path d="M 391.698 415.727 C 391.292 416.242 390.994 422.312 391.346 422.99 C 391.698 423.667 392.321 423.695 392.647 423.044 C 392.782 422.8 392.89 421.012 392.863 419.061 C 392.836 416.08 392.782 415.538 392.403 415.456 C 392.159 415.429 391.861 415.538 391.698 415.727 Z" stroke="none" style=""/>
  <path d="M 346.09 419.575 C 346.09 419.819 346.226 420.009 346.361 420.009 C 346.524 420.009 346.632 419.901 346.632 419.765 C 346.632 419.603 346.524 419.413 346.361 419.332 C 346.226 419.25 346.09 419.359 346.09 419.575 Z" stroke="none" style=""/>
  <path d="M 351.05 419.521 C 350.86 419.738 350.779 421.066 350.779 422.8 C 350.833 425.917 351.077 426.486 352.106 425.944 C 352.594 425.673 352.784 424.372 352.405 423.966 C 352.269 423.83 352.188 422.746 352.188 421.554 C 352.188 419.738 352.106 419.332 351.754 419.25 C 351.51 419.223 351.185 419.332 351.05 419.521 Z" stroke="none" style=""/>
  <path d="M 367.228 423.803 C 366.74 424.697 366.984 430.686 367.526 431.255 C 368.041 431.77 368.23 430.794 368.257 427.326 C 368.285 424.67 368.203 423.776 367.905 423.532 C 367.607 423.288 367.472 423.342 367.228 423.803 Z" stroke="none" style=""/>
  <path d="M 388.663 423.776 C 388.284 424.48 388.284 427.136 388.69 428.464 C 388.988 429.467 388.961 429.548 388.121 430.415 L 387.254 431.309 L 387.877 433.152 C 388.229 434.155 388.663 435.049 388.88 435.13 C 389.557 435.374 391.021 433.396 391.373 431.743 C 391.644 430.551 391.644 430.036 391.373 429.141 C 391.183 428.518 390.966 427.624 390.885 427.19 C 390.804 426.73 390.506 426.079 390.235 425.727 C 389.937 425.375 389.72 424.806 389.72 424.48 C 389.72 424.155 389.557 423.722 389.34 423.559 C 389.015 423.288 388.88 423.342 388.663 423.776 Z" stroke="none" style=""/>
  <path d="M 321.945 426.567 C 321.945 426.621 321.891 427.299 321.864 428.085 C 321.783 429.711 322.243 430.686 322.812 430.09 C 323.083 429.846 323.11 429.575 322.84 428.87 C 322.65 428.383 322.514 427.705 322.514 427.38 C 322.514 426.919 322.027 426.242 321.945 426.567 Z" stroke="none" style=""/>
  <path d="M 344.004 436.296 C 343.543 436.756 343.57 438.03 344.085 440.496 C 344.383 442.013 344.41 442.772 344.221 443.396 C 343.868 444.479 344.275 457.053 344.681 457.46 C 345.061 457.839 345.386 453.449 345.305 448.734 C 345.277 446.566 345.25 443.07 345.25 440.957 C 345.25 437.732 345.169 437 344.79 436.539 C 344.41 436.079 344.275 436.025 344.004 436.296 Z" stroke="none" style=""/>
  <path d="M 389.53 437.407 C 388.5 439.033 388.392 440.144 389.097 441.499 C 389.557 442.366 389.557 442.555 389.828 453.341 C 389.882 455.211 389.937 456.999 389.964 457.352 C 389.991 457.731 390.235 458.056 390.695 458.219 C 391.075 458.381 391.454 458.734 391.535 459.032 C 391.698 459.682 392.701 459.763 392.701 459.113 C 392.701 458.869 392.457 458.408 392.159 458.083 C 391.346 457.216 390.966 452.989 391.373 449.005 C 391.59 446.864 391.617 444.507 391.454 441.553 L 391.21 437.217 L 390.479 437.136 C 390.099 437.081 389.666 437.217 389.53 437.407 Z" stroke="none" style=""/>
  <path d="M 323.381 440.604 C 323.381 440.984 323.436 441.119 323.517 440.93 C 323.571 440.767 323.571 440.442 323.517 440.252 C 323.436 440.089 323.381 440.225 323.381 440.604 Z" stroke="none" style=""/>
  <path d="M 326.389 447 C 326.308 447.216 326.335 447.975 326.444 448.68 C 326.552 449.384 326.633 450.306 326.606 450.766 C 326.362 454.587 326.471 455.969 327.094 457.487 C 327.555 458.598 327.853 459.032 328.178 458.977 C 328.855 458.842 328.964 454.018 328.286 453.287 C 327.907 452.88 327.772 452.121 327.663 450.008 C 327.582 448.49 327.419 447.081 327.311 446.891 C 327.013 446.431 326.606 446.485 326.389 447 Z" stroke="none" style=""/>
  <path d="M 327.663 466.945 C 327.69 472.283 327.961 475.698 328.449 476.185 C 328.964 476.7 329.641 474.586 329.425 472.988 C 329.343 472.229 329.208 469.79 329.154 467.568 C 329.045 462.853 328.91 462.013 328.178 462.013 C 327.69 462.013 327.663 462.284 327.663 466.945 Z" stroke="none" style=""/>
  <path d="M 390.533 462.446 C 390.533 462.663 390.668 462.771 390.804 462.69 C 390.966 462.582 391.021 462.392 390.939 462.256 C 390.695 461.877 390.533 461.958 390.533 462.446 Z" stroke="none" style=""/>
  <path d="M 391.888 464.18 C 391.888 464.316 392.023 464.451 392.159 464.451 C 392.321 464.451 392.43 464.316 392.43 464.18 C 392.43 464.018 392.321 463.909 392.159 463.909 C 392.023 463.909 391.888 464.018 391.888 464.18 Z" stroke="none" style=""/>
  <path d="M 332.92 470.305 C 332.649 470.711 332.433 471.551 332.433 472.256 C 332.405 473.286 332.487 473.53 332.92 473.611 C 333.679 473.774 334.167 472.933 334.167 471.47 C 334.167 469.817 333.598 469.248 332.92 470.305 Z" stroke="none" style=""/>
  <path d="M 332.812 479.762 C 332.541 480.088 332.541 480.331 332.785 480.873 C 333.164 481.714 333.733 481.605 333.842 480.657 C 333.95 479.762 333.3 479.193 332.812 479.762 Z" stroke="none" style=""/>
  <path d="M 331.674 484.803 C 331.023 485.182 331.078 485.751 331.945 487.35 C 333.029 489.301 333.517 489.166 333.408 486.944 C 333.273 484.64 332.839 484.098 331.674 484.803 Z" stroke="none" style=""/>
</svg>